<?xml version="1.0" encoding="UTF-8"?>
<svg version="1.1" xmlns="http://www.w3.org/2000/svg" width="367" height="376">
<path d="M0 0 C0.67160156 0.59941406 1.34320313 1.19882813 2.03515625 1.81640625 C32.81559888 30.85044079 49.21384365 75.18571491 51.12597656 116.73754883 C51.74232622 138.65111982 49.64284362 160.05461039 43 181 C42.78504883 181.67933594 42.57009766 182.35867187 42.34863281 183.05859375 C34.8972326 205.91400965 21.78546116 225.15079287 6 243 C5.52884766 243.53431641 5.05769531 244.06863281 4.57226562 244.61914062 C-4.24014005 254.56165017 -12.74345024 262.29627786 -24.49902344 268.64794922 C-26.37512033 269.66218434 -28.24756845 270.68317364 -30.11816406 271.70751953 C-78.09869468 297.97804768 -116.74445529 302.80744826 -170.25 287.25 C-200.23766781 278.03577742 -229.05915765 261.68261378 -249 237 C-249.78246094 236.03191406 -250.56492188 235.06382812 -251.37109375 234.06640625 C-257.20063161 226.73073635 -262.3230116 219.13265796 -267 211 C-267.65742188 209.86175781 -268.31484375 208.72351563 -268.9921875 207.55078125 C-278.0779764 191.40489478 -284.41705289 174.17351358 -288 156 C-288.27928345 154.58847656 -288.27928345 154.58847656 -288.56420898 153.1484375 C-290.22778819 143.71581765 -290.35756812 134.42088478 -290.3125 124.875 C-290.31034485 124.05474335 -290.3081897 123.23448669 -290.30596924 122.38937378 C-290.25519458 110.35387163 -289.8705105 98.73994952 -287 87 C-286.70198486 85.72576172 -286.70198486 85.72576172 -286.39794922 84.42578125 C-278.79009018 52.4670745 -264.86822978 23.69439415 -242 0 C-241.21109375 -0.85207031 -240.4221875 -1.70414063 -239.609375 -2.58203125 C-211.724283 -31.89831174 -168.48816997 -48.4676671 -128.4765625 -49.9375 C-79.76926542 -50.98356276 -35.84575554 -32.41827294 0 0 Z M-126 -10 C-126.93070313 -9.61070313 -127.86140625 -9.22140625 -128.8203125 -8.8203125 C-135.18087787 -5.89133281 -140.81297522 -2.13798391 -146.5625 1.8125 C-160.76639125 11.49111184 -175.06267069 17.48670042 -191.73193359 21.44384766 C-207.15631603 25.22605898 -219.58277644 30.64162811 -231 42 C-231.62648438 42.59167969 -232.25296875 43.18335938 -232.8984375 43.79296875 C-250.93498268 62.27838723 -256.39473592 95.35963205 -256.1484375 119.96484375 C-255.4306805 144.19796754 -249.50813253 173.15258011 -235 193 C-234.43023437 193.78761719 -233.86046875 194.57523438 -233.2734375 195.38671875 C-224.56120025 206.80584453 -214.13938833 216.06602551 -202.73486328 224.67529297 C-201.04065394 225.96895746 -199.37508559 227.29202982 -197.71484375 228.62890625 C-187.6627848 236.67847802 -177.34761978 243.13937288 -165.125 247.3125 C-164.1201355 247.65812988 -164.1201355 247.65812988 -163.0949707 248.01074219 C-150.17502192 252.12747403 -137.2377373 253.56397656 -123.75 253.4375 C-123.03421783 253.43379395 -122.31843567 253.43008789 -121.58096313 253.42626953 C-83.26215876 253.14522203 -55.30516127 236.68992638 -28 211 C-26.93652344 210.01773438 -26.93652344 210.01773438 -25.8515625 209.015625 C-2.3668171 186.58529674 11.33758319 155.77552066 12.23828125 123.359375 C12.80471427 84.72254665 1.51174346 50.25439662 -25.74609375 22.1640625 C-35.3926617 12.59122252 -46.13929763 5.19982368 -58.16894531 -1.04785156 C-59.83895061 -1.91625431 -61.49456802 -2.81218461 -63.1484375 -3.7109375 C-82.30448952 -13.82820894 -105.3991593 -18.87678502 -126 -10 Z M-8 229 C-8.825 229.61746094 -9.65 230.23492187 -10.5 230.87109375 C-18.67196564 236.89872793 -27.04432021 242.16877852 -36.00732422 246.93847656 C-37.29692416 247.62546266 -38.58271162 248.31967465 -39.86376953 249.02246094 C-85.1716833 273.83710781 -132.92909981 277.22873686 -182 263 C-185.33733742 262.01299541 -188.67058014 261.01337982 -192 260 C-179.8370577 272.93808764 -155.8728724 277.4961629 -139 280 C-138.13503906 280.13148438 -137.27007812 280.26296875 -136.37890625 280.3984375 C-99.35708557 285.01836116 -58.6721194 273.66841979 -29.125 251.0625 C-21.3513971 244.82588322 -14.00504805 238.08746038 -7 231 C-7.33 230.34 -7.66 229.68 -8 229 Z " fill="#AC832D" transform="translate(302,63)"/>
</svg>
